ffmpeg started on 2016-12-02 at 01:38:40
Report written to "Output/x264/results/ffmpeg/old_town_cross_2160p50slower2500k.log"
Command line:
Tools/ffmpeg/ffmpeg -benchmark -y -i Input/y4m/old_town_cross_2160p50.y4m -c:v libx264 -preset slower -b:v 2500k -an Output/x264/encoded/old_town_cross_2160p50slower2500k.mkv
ffmpeg version N-82227-gdb23fde Copyright (c) 2000-2016 the FFmpeg developers
  built with gcc 5.4.0 (Ubuntu 5.4.0-6ubuntu1~16.04.2) 20160609
  configuration: --prefix=/home/jaroslav/ffmpeg_build --pkg-config-flags=--static --extra-cflags=-I/home/jaroslav/ffmpeg_build/include --extra-ldflags=-L/home/jaroslav/ffmpeg_build/lib --bindir=/home/jaroslav/bin --enable-gpl --enable-libass --enable-libfdk-aac --enable-libfreetype --enable-libmp3lame --enable-libopus --enable-libtheora --enable-libvorbis --enable-libvpx --enable-libx264 --enable-libx265 --enable-nvenc --enable-libmfx --enable-libxvid --enable-libgsm --enable-libopencore-amrnb --enable-version3 --enable-nonfree
  libavutil      55. 35.100 / 55. 35.100
  libavcodec     57. 66.101 / 57. 66.101
  libavformat    57. 57.100 / 57. 57.100
  libavdevice    57.  2.100 / 57.  2.100
  libavfilter     6. 66.100 /  6. 66.100
  libswscale      4.  3.100 /  4.  3.100
  libswresample   2.  4.100 /  2.  4.100
  libpostproc    54.  2.100 / 54.  2.100
Input #0, yuv4mpegpipe, from 'Input/y4m/old_town_cross_2160p50.y4m':
  Duration: 00:00:10.00, start: 0.000000, bitrate: 4976642 kb/s
    Stream #0:0: Video: rawvideo (I420 / 0x30323449), yuv420p(progressive), 3840x2160, SAR 1:1 DAR 16:9, 50 fps, 50 tbr, 50 tbn, 50 tbc
[libx264 @ 0x2d36120] using SAR=1/1
[libx264 @ 0x2d36120] DPB size (8 frames, 259200 mbs) > level limit (5 frames, 184320 mbs)
[libx264 @ 0x2d36120] using cpu capabilities: MMX2 SSE2Fast SSSE3 SSE4.2 AVX FMA3 AVX2 LZCNT BMI2
[libx264 @ 0x2d36120] profile High, level 5.2
[libx264 @ 0x2d36120] 264 - core 148 - H.264/MPEG-4 AVC codec - Copyleft 2003-2016 - http://www.videolan.org/x264.html - options: cabac=1 ref=8 deblock=1:0:0 analyse=0x3:0x133 me=umh subme=9 psy=1 psy_rd=1.00:0.00 mixed_ref=1 me_range=16 chroma_me=1 trellis=2 8x8dct=1 cqm=0 deadzone=21,11 fast_pskip=1 chroma_qp_offset=-2 threads=6 lookahead_threads=1 sliced_threads=0 nr=0 decimate=1 interlaced=0 bluray_compat=0 constrained_intra=0 bframes=3 b_pyramid=2 b_adapt=2 b_bias=0 direct=3 weightb=1 open_gop=0 weightp=2 keyint=250 keyint_min=25 scenecut=40 intra_refresh=0 rc_lookahead=60 rc=abr mbtree=1 bitrate=2500 ratetol=1.0 qcomp=0.60 qpmin=0 qpmax=69 qpstep=4 ip_ratio=1.40 aq=1:1.00
Output #0, matroska, to 'Output/x264/encoded/old_town_cross_2160p50slower2500k.mkv':
  Metadata:
    encoder         : Lavf57.57.100
    Stream #0:0: Video: h264 (libx264) (H264 / 0x34363248), yuv420p, 3840x2160 [SAR 1:1 DAR 16:9], q=-1--1, 2500 kb/s, 50 fps, 1k tbn, 50 tbc
    Metadata:
      encoder         : Lavc57.66.101 libx264
    Side data:
      cpb: bitrate max/min/avg: 0/0/2500000 buffer size: 0 vbv_delay: -1
Stream mapping:
  Stream #0:0 -> #0:0 (rawvideo (native) -> h264 (libx264))
Press [q] to stop, [?] for help
frame=   62 fps=0.0 q=0.0 size=       0kB time=00:00:00.00 bitrate=N/A speed=   0x    frame=   67 fps= 17 q=0.0 size=       0kB time=00:00:00.00 bitrate=N/A speed=   0x    frame=   75 fps= 15 q=49.0 size=       1kB time=00:00:00.04 bitrate= 143.6kbits/s speed=0.00845x    frame=   81 fps= 15 q=49.0 size=       1kB time=00:00:00.16 bitrate=  36.6kbits/s speed=0.0291x    frame=   84 fps= 14 q=50.0 size=       1kB time=00:00:00.22 bitrate=  26.6kbits/s speed=0.036x    frame=   88 fps= 13 q=49.0 size=       1kB time=00:00:00.30 bitrate=  19.6kbits/s speed=0.0439x    frame=   93 fps= 12 q=48.0 size=       1kB time=00:00:00.40 bitrate=  14.7kbits/s speed=0.0537x    frame=   96 fps= 12 q=47.0 size=       1kB time=00:00:00.46 bitrate=  12.8kbits/s speed=0.0574x    frame=  100 fps= 12 q=47.0 size=       1kB time=00:00:00.54 bitrate=  10.9kbits/s speed=0.0624x    frame=  104 fps= 11 q=47.0 size=       1kB time=00:00:00.62 bitrate=   9.5kbits/s speed=0.0669x    frame=  107 fps= 11 q=47.0 size=       1kB time=00:00:00.68 bitrate=   8.6kbits/s speed=0.0688x    frame=  112 fps= 11 q=47.0 size=       1kB time=00:00:00.78 bitrate=   7.5kbits/s speed=0.0738x    frame=  115 fps= 10 q=46.0 size=       1kB time=00:00:00.84 bitrate=   7.0kbits/s speed=0.0758x    frame=  118 fps= 10 q=46.0 size=       1kB time=00:00:00.90 bitrate=   6.5kbits/s speed=0.0777x    frame=  122 fps=9.8 q=46.0 size=       1kB time=00:00:00.98 bitrate=   6.0kbits/s speed=0.0792x    frame=  126 fps=9.7 q=46.0 size=       1kB time=00:00:01.06 bitrate=   5.5kbits/s speed=0.0821x    frame=  130 fps=9.6 q=46.0 size=       1kB time=00:00:01.14 bitrate=   5.2kbits/s speed=0.084x    frame=  134 fps=9.3 q=46.0 size=       1kB time=00:00:01.22 bitrate=   4.8kbits/s speed=0.0843x    frame=  139 fps=9.3 q=46.0 size=       1kB time=00:00:01.32 bitrate=   4.5kbits/s speed=0.088x    frame=  142 fps=9.0 q=46.0 size=       1kB time=00:00:01.38 bitrate=   4.3kbits/s speed=0.0877x    frame=  146 fps=8.9 q=46.0 size=       1kB time=00:00:01.46 bitrate=   4.0kbits/s speed=0.0888x    frame=  151 fps=8.8 q=46.0 size=       1kB time=00:00:01.56 bitrate=   3.8kbits/s speed=0.0912x    frame=  154 fps=8.6 q=46.0 size=       1kB time=00:00:01.62 bitrate=   3.6kbits/s speed=0.0908x    frame=  160 fps=8.5 q=46.0 size=       1kB time=00:00:01.74 bitrate=   3.4kbits/s speed=0.0928x    frame=  165 fps=8.4 q=46.0 size=       1kB time=00:00:01.84 bitrate=   3.2kbits/s speed=0.0936x    frame=  169 fps=8.3 q=46.0 size=       1kB time=00:00:01.92 bitrate=   3.1kbits/s speed=0.0948x    frame=  173 fps=8.3 q=46.0 size=       1kB time=00:00:02.00 bitrate=   2.9kbits/s speed=0.0954x    frame=  177 fps=8.2 q=46.0 size=       1kB time=00:00:02.08 bitrate=   2.8kbits/s speed=0.0963x    frame=  180 fps=8.1 q=46.0 size=       1kB time=00:00:02.14 bitrate=   2.8kbits/s speed=0.0964x    frame=  185 fps=8.1 q=46.0 size=       1kB time=00:00:02.24 bitrate=   2.6kbits/s speed=0.0981x    frame=  188 fps=8.0 q=46.0 size=       1kB time=00:00:02.30 bitrate=   2.6kbits/s speed=0.0975x    frame=  192 fps=7.9 q=45.0 size=       1kB time=00:00:02.38 bitrate=   2.5kbits/s speed=0.0985x    frame=  196 fps=7.9 q=45.0 size=       1kB time=00:00:02.46 bitrate=   2.4kbits/s speed=0.0994x    frame=  199 fps=7.8 q=45.0 size=       1kB time=00:00:02.52 bitrate=   2.3kbits/s speed=0.0989x    frame=  204 fps=7.8 q=46.0 size=       1kB time=00:00:02.62 bitrate=   2.2kbits/s speed=0.0998x    frame=  208 fps=7.7 q=45.0 size=       1kB time=00:00:02.70 bitrate=   2.2kbits/s speed= 0.1x    frame=  211 fps=7.6 q=45.0 size=       1kB time=00:00:02.76 bitrate=   2.1kbits/s speed=0.0998x    frame=  217 fps=7.7 q=45.0 size=       1kB time=00:00:02.88 bitrate=   2.0kbits/s speed=0.102x    frame=  219 fps=7.6 q=45.0 size=       1kB time=00:00:02.92 bitrate=   2.0kbits/s speed=0.101x    frame=  225 fps=7.6 q=45.0 size=       1kB time=00:00:03.04 bitrate=   1.9kbits/s speed=0.103x    frame=  227 fps=7.5 q=45.0 size=       1kB time=00:00:03.08 bitrate=   1.9kbits/s speed=0.101x    frame=  233 fps=7.4 q=45.0 size=       1kB time=00:00:03.20 bitrate=   1.8kbits/s speed=0.102x    frame=  236 fps=7.4 q=45.0 size=       1kB time=00:00:03.26 bitrate=   1.8kbits/s speed=0.102x    frame=  240 fps=7.4 q=45.0 size=       1kB time=00:00:03.34 bitrate=   1.8kbits/s speed=0.103x    frame=  245 fps=7.4 q=45.0 size=       1kB time=00:00:03.44 bitrate=   1.7kbits/s speed=0.104x    frame=  247 fps=7.3 q=45.0 size=       1kB time=00:00:03.48 bitrate=   1.7kbits/s speed=0.103x    frame=  251 fps=7.3 q=45.0 size=       1kB time=00:00:03.56 bitrate=   1.7kbits/s speed=0.104x    frame=  255 fps=7.3 q=45.0 size=       1kB time=00:00:03.64 bitrate=   1.6kbits/s speed=0.104x    frame=  258 fps=7.2 q=45.0 size=       1kB time=00:00:03.70 bitrate=   1.6kbits/s speed=0.104x    frame=  264 fps=7.3 q=45.0 size=       1kB time=00:00:03.82 bitrate=   1.5kbits/s speed=0.105x    frame=  266 fps=7.2 q=45.0 size=       1kB time=00:00:03.86 bitrate=   1.5kbits/s speed=0.105x    frame=  270 fps=7.2 q=45.0 size=       1kB time=00:00:03.94 bitrate=   1.5kbits/s speed=0.105x    frame=  274 fps=7.2 q=45.0 size=       1kB time=00:00:04.02 bitrate=   1.5kbits/s speed=0.105x    frame=  278 fps=7.1 q=45.0 size=       1kB time=00:00:04.10 bitrate=   1.4kbits/s speed=0.105x    frame=  282 fps=7.1 q=45.0 size=       1kB time=00:00:04.18 bitrate=   1.4kbits/s speed=0.106x    frame=  285 fps=7.1 q=45.0 size=       1kB time=00:00:04.24 bitrate=   1.4kbits/s speed=0.106x    frame=  291 fps=7.1 q=45.0 size=       1kB time=00:00:04.36 bitrate=   1.4kbits/s speed=0.106x    frame=  297 fps=7.0 q=45.0 size=       1kB time=00:00:04.48 bitrate=   1.3kbits/s speed=0.106x    frame=  301 fps=7.1 q=45.0 size=       1kB time=00:00:04.56 bitrate=   1.3kbits/s speed=0.107x    frame=  304 fps=7.0 q=45.0 size=       1kB time=00:00:04.62 bitrate=   1.3kbits/s speed=0.107x    frame=  307 fps=7.0 q=45.0 size=       1kB time=00:00:04.68 bitrate=   1.3kbits/s speed=0.107x    frame=  312 fps=7.0 q=45.0 size=       1kB time=00:00:04.78 bitrate=   1.2kbits/s speed=0.107x    frame=  316 fps=7.0 q=46.0 size=       1kB time=00:00:04.86 bitrate=   1.2kbits/s speed=0.107x    frame=  322 fps=7.0 q=46.0 size=    1440kB time=00:00:04.98 bitrate=2367.5kbits/s speed=0.109x    frame=  327 fps=7.0 q=46.0 size=    1440kB time=00:00:05.08 bitrate=2320.9kbits/s speed=0.109x    frame=  331 fps=7.0 q=46.0 size=    1440kB time=00:00:05.16 bitrate=2284.9kbits/s speed=0.109x    frame=  336 fps=7.0 q=46.0 size=    1440kB time=00:00:05.26 bitrate=2241.5kbits/s speed=0.11x    frame=  339 fps=7.0 q=46.0 size=    1440kB time=00:00:05.32 bitrate=2216.2kbits/s speed=0.109x    frame=  343 fps=7.0 q=46.0 size=    1440kB time=00:00:05.40 bitrate=2183.4kbits/s speed=0.11x    frame=  347 fps=6.9 q=46.0 size=    1440kB time=00:00:05.48 bitrate=2151.5kbits/s speed=0.11x    frame=  351 fps=6.9 q=46.0 size=    1440kB time=00:00:05.56 bitrate=2120.6kbits/s speed=0.11x    frame=  354 fps=6.9 q=46.0 size=    1440kB time=00:00:05.62 bitrate=2098.0kbits/s speed=0.11x    frame=  358 fps=6.9 q=46.0 size=    1440kB time=00:00:05.70 bitrate=2068.5kbits/s speed=0.11x    frame=  361 fps=6.9 q=46.0 size=    1440kB time=00:00:05.76 bitrate=2047.0kbits/s speed=0.11x    frame=  365 fps=6.9 q=46.0 size=    1440kB time=00:00:05.84 bitrate=2018.9kbits/s speed=0.11x    frame=  369 fps=6.9 q=46.0 size=    1440kB time=00:00:05.92 bitrate=1991.7kbits/s speed=0.11x    frame=  375 fps=6.8 q=46.0 size=    1440kB time=00:00:06.04 bitrate=1952.1kbits/s speed=0.11x    frame=  380 fps=6.9 q=46.0 size=    1440kB time=00:00:06.14 bitrate=1920.3kbits/s speed=0.111x    frame=  383 fps=6.8 q=46.0 size=    1440kB time=00:00:06.20 bitrate=1901.7kbits/s speed=0.11x    frame=  388 fps=6.8 q=46.0 size=    1440kB time=00:00:06.30 bitrate=1871.5kbits/s speed=0.111x    frame=  391 fps=6.8 q=46.0 size=    1440kB time=00:00:06.36 bitrate=1853.9kbits/s speed=0.11x    frame=  396 fps=6.8 q=46.0 size=    1440kB time=00:00:06.46 bitrate=1825.2kbits/s speed=0.111x    frame=  399 fps=6.8 q=46.0 size=    1440kB time=00:00:06.52 bitrate=1808.4kbits/s speed=0.111x    frame=  404 fps=6.8 q=46.0 size=    1440kB time=00:00:06.62 bitrate=1781.1kbits/s speed=0.111x    frame=  407 fps=6.8 q=46.0 size=    1440kB time=00:00:06.68 bitrate=1765.1kbits/s speed=0.111x    frame=  411 fps=6.7 q=46.0 size=    1440kB time=00:00:06.76 bitrate=1744.2kbits/s speed=0.111x    frame=  415 fps=6.7 q=46.0 size=    1440kB time=00:00:06.84 bitrate=1723.8kbits/s speed=0.111x    frame=  418 fps=6.7 q=46.0 size=    1440kB time=00:00:06.90 bitrate=1708.8kbits/s speed=0.111x    frame=  423 fps=6.7 q=46.0 size=    1440kB time=00:00:07.00 bitrate=1684.4kbits/s speed=0.111x    frame=  424 fps=6.7 q=46.0 size=    1440kB time=00:00:07.02 bitrate=1679.6kbits/s speed=0.111x    frame=  430 fps=6.7 q=46.0 size=    1440kB time=00:00:07.14 bitrate=1651.4kbits/s speed=0.111x    frame=  435 fps=6.7 q=46.0 size=    1440kB time=00:00:07.24 bitrate=1628.6kbits/s speed=0.111x    frame=  438 fps=6.7 q=46.0 size=    1440kB time=00:00:07.30 bitrate=1615.2kbits/s speed=0.111x    frame=  443 fps=6.6 q=46.0 size=    1440kB time=00:00:07.40 bitrate=1593.4kbits/s speed=0.111x    frame=  447 fps=6.6 q=46.0 size=    1440kB time=00:00:07.48 bitrate=1576.3kbits/s speed=0.111x    frame=  450 fps=6.6 q=46.0 size=    1440kB time=00:00:07.54 bitrate=1563.8kbits/s speed=0.111x    frame=  453 fps=6.6 q=46.0 size=    1440kB time=00:00:07.60 bitrate=1551.5kbits/s speed=0.111x    frame=  457 fps=6.6 q=46.0 size=    1440kB time=00:00:07.68 bitrate=1535.3kbits/s speed=0.111x    frame=  463 fps=6.6 q=46.0 size=    1440kB time=00:00:07.80 bitrate=1511.7kbits/s speed=0.111x    frame=  467 fps=6.6 q=46.0 size=    1440kB time=00:00:07.88 bitrate=1496.3kbits/s speed=0.112x    frame=  471 fps=6.6 q=46.0 size=    1440kB time=00:00:07.96 bitrate=1481.3kbits/s speed=0.111x    frame=  476 fps=6.6 q=46.0 size=    1440kB time=00:00:08.06 bitrate=1462.9kbits/s speed=0.112x    frame=  479 fps=6.6 q=46.0 size=    1440kB time=00:00:08.12 bitrate=1452.1kbits/s speed=0.111x    frame=  483 fps=6.6 q=46.0 size=    1440kB time=00:00:08.20 bitrate=1437.9kbits/s speed=0.111x    frame=  487 fps=6.6 q=46.0 size=    1440kB time=00:00:08.28 bitrate=1424.1kbits/s speed=0.112x    frame=  491 fps=6.5 q=46.0 size=    1440kB time=00:00:08.36 bitrate=1410.4kbits/s speed=0.111x    frame=  495 fps=6.5 q=46.0 size=    1440kB time=00:00:08.44 bitrate=1397.1kbits/s speed=0.112x    frame=  498 fps=6.5 q=46.0 size=    1440kB time=00:00:08.50 bitrate=1387.2kbits/s speed=0.111x    frame=  500 fps=5.8 q=-1.0 Lsize=    3090kB time=00:00:09.94 bitrate=2546.8kbits/s speed=0.114x    
video:3086kB audio:0kB subtitle:0kB other streams:0kB global headers:0kB muxing overhead: 0.138152%
bench: utime=330.380s
bench: maxrss=2602904kB
[libx264 @ 0x2d36120] frame I:3     Avg QP:41.62  size: 71349
[libx264 @ 0x2d36120] frame P:138   Avg QP:43.93  size:  8677
[libx264 @ 0x2d36120] frame B:359   Avg QP:45.57  size:  4870
[libx264 @ 0x2d36120] consecutive B-frames:  1.0%  2.0% 23.4% 73.6%
[libx264 @ 0x2d36120] mb I  I16..4: 24.6% 74.1%  1.3%
[libx264 @ 0x2d36120] mb P  I16..4:  0.1%  0.1%  0.0%  P16..4: 11.4%  0.1%  3.6%  0.0%  0.0%    skip:84.6%
[libx264 @ 0x2d36120] mb B  I16..4:  0.0%  0.0%  0.0%  B16..8: 24.8%  0.0%  0.0%  direct: 0.0%  skip:75.1%  L0:42.4% L1:57.6% BI: 0.0%
[libx264 @ 0x2d36120] final ratefactor: 37.92
[libx264 @ 0x2d36120] 8x8 transform intra:71.1% inter:92.3%
[libx264 @ 0x2d36120] direct mvs  spatial:98.9% temporal:1.1%
[libx264 @ 0x2d36120] coded y,uvDC,uvAC intra: 18.4% 21.9% 2.1% inter: 0.2% 0.3% 0.0%
[libx264 @ 0x2d36120] i16 v,h,dc,p: 24% 42%  2% 32%
[libx264 @ 0x2d36120] i8 v,h,dc,ddl,ddr,vr,hd,vl,hu: 15%  3% 38%  6% 10%  5% 10%  4%  8%
[libx264 @ 0x2d36120] i4 v,h,dc,ddl,ddr,vr,hd,vl,hu:  5%  5%  2% 14% 17% 11% 20%  8% 19%
[libx264 @ 0x2d36120] i8c dc,h,v,p: 16% 71%  7%  5%
[libx264 @ 0x2d36120] Weighted P-Frames: Y:0.7% UV:0.0%
[libx264 @ 0x2d36120] ref P L0: 80.6%  4.8%  8.9%  1.5%  1.4%  1.3%  1.1%  0.5%  0.0%
[libx264 @ 0x2d36120] ref B L0: 95.1%  3.3%  1.0%  0.2%  0.1%  0.1%  0.0%
[libx264 @ 0x2d36120] ref B L1: 99.1%  0.9%
[libx264 @ 0x2d36120] kb/s:2527.68
